<?xml version="1.0" encoding="utf-8"?>
<!-- Generator: Adobe Illustrator 22.1.0, SVG Export Plug-In . SVG Version: 6.00 Build 0)  -->
<svg version="1.1" id="Layer_1" xmlns="http://www.w3.org/2000/svg" xmlns:xlink="http://www.w3.org/1999/xlink" x="0px" y="0px"
	 viewBox="0 0 136 68" style="enable-background:new 0 0 136 68;" xml:space="preserve">
<style type="text/css">
	.st0{fill:#1C1C1B;}
	.st1{fill:#EA0029;}
	.st2{fill:#FFFFFF;}
	.st3{fill:#00A0DF;}
	.st4{fill:#6ABF4B;}
</style>
<g>
	<g>
		<path class="st0" d="M132.7,40.5c0.6,0,1,0.4,1,0.8c0,0.5-0.5,0.8-1,0.8c-0.6,0-1-0.4-1-0.8C131.7,40.9,132.2,40.5,132.7,40.5z
			 M132.7,40.7c-0.5,0-0.8,0.3-0.8,0.7c0,0.4,0.4,0.7,0.8,0.7c0.5,0,0.8-0.3,0.8-0.7C133.6,41,133.2,40.7,132.7,40.7z M132.5,41.9
			h-0.2v-1h0.5c0.3,0,0.4,0.1,0.4,0.3c0,0.2-0.1,0.2-0.3,0.3l0.3,0.4H133l-0.3-0.4h-0.2V41.9z M132.5,41.3h0.2
			c0.2,0,0.3-0.1,0.3-0.2c0-0.1-0.1-0.1-0.3-0.1h-0.2V41.3z"/>
		<path class="st0" d="M3.8,47.9h3.5v1.5H1.8v-8.9h2V47.9z"/>
		<path class="st0" d="M9.5,47.6l-0.9,1.9H6.5l4.3-8.9l1.7,0l4.2,8.9h-2.1l-0.9-1.9H9.5z M11.6,42.9l-1.5,3.2H13L11.6,42.9z"/>
		<path class="st0" d="M22.2,42.6c-0.5-0.5-1-0.7-1.6-0.7c-0.9,0-1.5,0.4-1.5,1c0,0.5,0.4,0.7,1.5,1.1c2.3,0.7,2.9,1.4,2.9,2.8
			c0,1.7-1.5,2.9-3.5,2.9c-1.5,0-2.6-0.5-3.5-1.7l1.3-1.1c0.5,0.8,1.2,1.2,2.2,1.2c0.9,0,1.5-0.5,1.5-1.3c0-0.4-0.2-0.7-0.6-0.9
			c-0.2-0.1-0.6-0.3-1.4-0.5c-1.9-0.6-2.5-1.2-2.5-2.4c0-1.5,1.4-2.6,3.2-2.6c1.1,0,2.1,0.3,3,1L22.2,42.6z"/>
		<path class="st0" d="M30.3,49.4h-2v-8.9h3c1.3,0,2,0.2,2.7,0.7c0.7,0.5,1,1.3,1,2.1c0,1.8-1.2,2.8-3.4,2.8h-1.3V49.4z M31.1,44.6
			c1.2,0,1.9-0.4,1.9-1.3c0-0.9-0.6-1.3-2-1.3h-0.7v2.6H31.1z"/>
		<path class="st0" d="M37.8,47.9h3.5v1.5h-5.5v-8.9h2V47.9z"/>
		<path class="st0" d="M43.5,47.6l-0.9,1.9h-2.1l4.3-8.9l1.7,0l4.2,8.9h-2.1l-0.9-1.9H43.5z M45.6,42.9l-1.5,3.2H47L45.6,42.9z"/>
		<path class="st0" d="M59.3,47.9v1.5h-8l5-7.4h-4.2v-1.5h7.5l-5,7.4H59.3z"/>
		<path class="st0" d="M63.3,47.6l-0.9,1.9h-2.1l4.3-8.9h1.7l4.2,8.9h-2.1l-0.9-1.9H63.3z M65.4,42.9l-1.5,3.2h2.9L65.4,42.9z"/>
		<path class="st0" d="M76.3,42.6c-0.5-0.5-1-0.7-1.6-0.7c-0.9,0-1.5,0.4-1.5,1c0,0.5,0.4,0.7,1.5,1.1c2.3,0.7,2.9,1.4,2.9,2.8
			c0,1.7-1.5,2.9-3.5,2.9c-1.5,0-2.6-0.5-3.5-1.7l1.3-1.1c0.5,0.8,1.2,1.2,2.2,1.2c0.9,0,1.5-0.5,1.5-1.3c0-0.4-0.2-0.7-0.6-0.9
			c-0.2-0.1-0.6-0.3-1.4-0.5c-1.9-0.6-2.5-1.2-2.5-2.4c0-1.5,1.4-2.6,3.2-2.6c1.1,0,2.1,0.3,3,1L76.3,42.6z"/>
		<path class="st0" d="M93,45c0,2.6-2.4,4.7-5.4,4.7c-3.1,0-5.5-2-5.5-4.6s2.4-4.7,5.5-4.7C90.7,40.3,93,42.4,93,45z M84.2,45
			c0,1.7,1.5,3.1,3.4,3.1c1.9,0,3.4-1.4,3.4-3.1c0-1.7-1.5-3.1-3.4-3.1C85.7,41.9,84.2,43.3,84.2,45z"/>
		<path class="st0" d="M95.9,45.6c0,0.9,0.1,1.2,0.3,1.6c0.3,0.5,1,0.8,1.8,0.8c0.8,0,1.5-0.3,1.8-0.8c0.3-0.4,0.3-0.7,0.3-1.6v-5.1
			h2V46c0,1-0.2,1.8-0.7,2.4c-0.7,0.8-2,1.3-3.3,1.3c-1.4,0-2.6-0.5-3.3-1.3c-0.5-0.6-0.7-1.3-0.7-2.4v-5.5h2V45.6z"/>
		<path class="st0" d="M105.5,49.4V42h-2.3v-1.5h6.5V42h-2.3v7.4H105.5z"/>
		<path class="st0" d="M113,47.9h3.1v1.5H111v-8.9h2V47.9z"/>
		<path class="st0" d="M119.2,42v2h3.5v1.5h-3.5v2.4h3.7v1.5h-5.6v-8.9h5.6V42H119.2z"/>
		<path class="st0" d="M126,49.4V42h-2.3v-1.5h6.6V42h-2.3v7.4H126z"/>
		<path class="st1" d="M1.8,51.9v8.4h128.5v-8.4H1.8z"/>
		<path class="st2" d="M52.1,53.9h1.1v3.9h3.2v0.7h-4.3V53.9z"/>
		<path class="st2" d="M57.6,53.9h4.6v0.7h-3.5v1.2h3.1v0.7h-3.1v1.2h3.5v0.7h-4.6V53.9z"/>
		<path class="st2" d="M63.5,53.9h2.8c0.4,0,0.7,0,1,0.1c0.3,0.1,0.6,0.2,0.8,0.3c0.2,0.1,0.3,0.3,0.4,0.4c0.1,0.2,0.1,0.4,0.1,0.6
			v0c0,0.2,0,0.4-0.1,0.5c-0.1,0.2-0.2,0.3-0.3,0.4c-0.1,0.1-0.3,0.2-0.5,0.3c-0.2,0.1-0.4,0.1-0.6,0.2l1.7,1.8h-1.3L65.9,57h0h-1.3
			v1.6h-1.1V53.9z M66.2,56.2c0.4,0,0.7-0.1,0.9-0.2c0.2-0.1,0.3-0.3,0.3-0.6v0c0-0.3-0.1-0.4-0.3-0.6c-0.2-0.1-0.5-0.2-0.9-0.2
			h-1.6v1.6H66.2z"/>
		<path class="st2" d="M69.9,53.9H71l1.9,2.2l1.9-2.2h1.2v4.6h-1.1v-3.3l-2,2.2h0l-1.9-2.2v3.3h-1.1V53.9z"/>
		<path class="st2" d="M79.7,53.9h1l2.7,4.7h-1.1l-0.6-1.1h-2.9l-0.6,1.1H77L79.7,53.9z M81.3,56.7l-1.1-1.9l-1.1,1.9H81.3z"/>
	</g>
	<g>
		<path class="st3" d="M92.5,20c5.3-1.6,5.6-1.7,5.6-1.7c2-0.7,3.7,0.8,1.5,1.7c-9.6,3.6-22.6,6-26.6-0.5c-2.3-3.7-4-6-12.9-3.1
			c-8.6,2.8-18,7-20.7,8.1c-3,1.3-6-1-3.2-2.4c3.3-1.6,13.5-6.8,25.2-9.4c4.2-0.9,10.6-2,13.6,3.2C78.1,21.2,84.2,22.5,92.5,20z"/>
		<path class="st4" d="M25,33.5c2.4-1.8,9.8-6,15.7-7.9c2.9-0.9,7-2.2,7.7,0.8c0.3,1.8,1.9,5.1,9.7,0.6c4.2-2.4,9.9-3.4,12.4-0.5
			c2.9,3.5,4.9,3.1,9.4,0.1c2.7-1.8,7.8-3.4,11.6-0.1c3.3,3,5.8,2.7,14.5-0.9c1.5-0.7,2.4-1.1,3.5-1.5c1.1-0.4,2.3,0.2,1.5,0.9
			c0,0-11.7,9.8-21.1,4.2c-1.4-0.9-3.5-2.7-7.6-0.1c-2.6,1.7-8.8,5.1-13.4,0.1c-1.5-1.7-3.6-2.5-7.5-0.1c-2.9,1.7-13.4,5.7-14.8,0.1
			c-0.7-2.5-3.4-1.4-4.8-0.9c-3.9,1.3-5.8,2.6-13.1,7.1C25.7,37.1,22.9,35.1,25,33.5z"/>
	</g>
</g>
</svg>
